<?xml version="1.0" encoding="UTF-8"?>
<svg version="1.1" xmlns="http://www.w3.org/2000/svg" width="1200" height="1200">
<path d="M0 0 C396 0 792 0 1200 0 C1200 396 1200 792 1200 1200 C804 1200 408 1200 0 1200 C0 804 0 408 0 0 Z " fill="#037EF2" transform="translate(0,0)"/>
<path d="M0 0 C12.03894089 8.48144564 19.79934394 21.29462025 22.74609375 35.65625 C23.13500726 40.41453446 23.12078618 45.13484699 23.05859375 49.90625 C23.06342773 51.73736328 23.06342773 51.73736328 23.06835938 53.60546875 C22.99646815 65.95768769 21.58238737 77.66030884 17.49609375 89.34375 C17.18526855 90.24512695 16.87444336 91.14650391 16.55419922 92.07519531 C12.45960217 103.64206619 7.39965764 113.77482346 -3.05859375 120.8828125 C-7.39624615 122.41102456 -12.16757399 121.96124772 -16.72265625 122.01953125 C-20.33924163 122.34682755 -20.33924163 122.34682755 -22.6171875 124.82421875 C-24.33769201 127.80122536 -25.20200067 130.30541776 -25.94140625 133.65625 C-26.17214844 134.666875 -26.40289063 135.6775 -26.640625 136.71875 C-26.84300781 137.688125 -27.04539062 138.6575 -27.25390625 139.65625 C-27.43695312 140.43355469 -27.62 141.21085938 -27.80859375 142.01171875 C-30.74561193 159.4534846 -25.7525117 175.75119361 -20.8828125 192.33984375 C-18.58364044 200.20877231 -16.69824985 208.0116955 -15.36328125 216.10546875 C-15.19394073 217.12903976 -15.02460022 218.15261078 -14.85012817 219.2071991 C-12.61078831 233.1675379 -11.02073101 247.21417298 -9.3873291 261.25537109 C-9.04173705 264.21534985 -8.69091643 267.1746985 -8.33994675 270.13404369 C-7.29176802 278.97257584 -6.26462654 287.8133534 -5.25390625 296.65625 C-5.13454712 297.69576813 -5.01518799 298.73528625 -4.89221191 299.80630493 C-4.59268858 302.43535103 -4.3001796 305.06503275 -4.01171875 307.6953125 C-3.93114227 308.40263016 -3.8505658 309.10994781 -3.76754761 309.83869934 C-3.32455437 313.99359909 -3.19080129 318.07274326 -3.24824524 322.24411011 C-3.26710298 328.82195471 -2.35181875 332.4943013 2.30859375 337.21875 C4.09091727 338.73414207 5.90763541 340.20947386 7.74609375 341.65625 C15.28715389 347.93871874 22.08455558 354.9350054 28.96875 361.91796875 C33.47168608 366.46023178 38.00702521 370.86862633 42.86523438 375.02929688 C46.0800072 377.81009206 49.15343764 380.74123993 52.24609375 383.65625 C56.69842114 387.83290503 61.16576914 391.96970969 65.79296875 395.953125 C68.31221651 398.14990905 70.77712371 400.40314619 73.24609375 402.65625 C75.07897257 404.32341649 76.91227095 405.99012191 78.74609375 407.65625 C79.41382813 408.2646875 80.0815625 408.873125 80.76953125 409.5 C82.73255064 411.25594984 84.73082148 412.9605164 86.74609375 414.65625 C87.59558594 415.39230469 88.44507813 416.12835937 89.3203125 416.88671875 C97.12644859 423.30509731 105.467181 427.89941431 114.52368164 432.36987305 C123.93141405 437.05250917 133.1447631 442.23858736 137.203125 452.5078125 C138.76272415 458.67888829 138.73773752 465.32965684 136.05859375 471.15625 C132.44188682 477.19240915 127.42759246 479.68203346 120.91015625 481.88671875 C112.3312934 483.97318293 103.64976399 483.90778867 95.90625 479.375 C91.84706204 476.14526636 89.41609616 472.04717474 86.74609375 467.65625 C71.60258289 443.29465105 50.18551674 428.93370844 26.42480469 413.41699219 C23.60860753 411.565879 20.82120157 409.67779253 18.05126953 407.75830078 C12.79452263 404.30465243 7.7058041 401.66235534 1.84375 399.4140625 C0.81417175 399.01102905 0.81417175 399.01102905 -0.23620605 398.59985352 C-1.90674174 397.94676643 -3.58004061 397.30075449 -5.25390625 396.65625 C-6.44508601 427.48316472 -6.44508601 427.48316472 3.32910156 455.99169922 C6.35559563 461.68280126 8.54525124 467.77831285 10.87109375 473.78125 C11.4250677 475.19680181 11.97910506 476.6123288 12.53320312 478.02783203 C29.9284971 522.68539851 44.85917682 568.35603591 59.61947632 613.9370575 C71.17534928 650.31216613 71.17534928 650.31216613 84.5300293 686.04614258 C89.34710589 697.82182087 93.65240583 709.72197119 97.75695801 721.76275635 C99.5887886 727.12949902 101.44269884 732.48860027 103.296875 737.84765625 C103.85760208 739.46852142 103.85760208 739.46852142 104.42965698 741.12213135 C122.30698808 801.42380144 122.30698808 801.42380144 155.37109375 853.21875 C164.89255967 857.27418919 176.01236347 856.91522166 186.1953125 856.7109375 C188.69726029 856.68566394 191.19921368 856.66094065 193.70117188 856.63671875 C197.57839182 856.58705178 201.45530669 856.53087744 205.33227539 856.46435547 C209.11997305 856.40364523 212.90728137 856.36833407 216.6953125 856.3359375 C217.84142502 856.30901825 218.98753754 856.282099 220.16838074 856.25436401 C228.94093705 856.20023459 237.11356201 857.74090612 244.37109375 862.96875 C247.33065266 866.31772455 247.98931817 868.19713566 247.74609375 872.65625 C242.79652179 878.22451845 234.87277694 880.05864007 227.85546875 881.70703125 C226.33533892 882.07621557 224.8152391 882.44552348 223.29516602 882.81494141 C222.11871017 883.09739716 222.11871017 883.09739716 220.91848755 883.38555908 C208.10209429 886.4711037 195.39417215 889.66967177 182.91113281 893.93359375 C180.57288289 894.71406508 178.22121525 895.43753624 175.86328125 896.15625 C162.0847355 900.43569189 149.22712464 906.26513237 136.25366211 912.55224609 C132.45006622 914.22685038 129.01340765 914.86349274 124.87109375 915.03125 C124.04867188 915.08023438 123.22625 915.12921875 122.37890625 915.1796875 C118.60365879 914.42911901 116.2174748 912.49267073 113.74609375 909.65625 C112.45766969 907.14525466 111.50321702 904.98077324 110.62109375 902.34375 C110.37157959 901.64588379 110.12206543 900.94801758 109.86499023 900.22900391 C108.18733329 895.39279867 106.94442647 890.51747656 105.80859375 885.53125 C103.94934296 877.56495008 100.74405953 870.7580093 96.74609375 863.65625 C96.07876221 862.46878174 96.07876221 862.46878174 95.39794922 861.25732422 C93.29739844 857.53054057 91.18895774 853.80835949 89.07080078 850.09155273 C82.04955158 837.74531033 75.39264516 825.20660977 68.74609375 812.65625 C68.19501953 811.61871582 67.64394531 810.58118164 67.07617188 809.51220703 C56.54718197 789.66241915 46.65544984 769.76247865 39.0065918 748.61132812 C30.91236762 726.4749117 17.64511479 705.76959762 6.18505859 685.23681641 C-5.20649517 664.80778294 -16.36301916 644.26578702 -27.25073242 623.56365967 C-27.91003008 622.31008756 -28.5696873 621.05670448 -29.22973633 619.80352783 C-39.95568595 599.43860702 -50.50237372 578.9627237 -59.25390625 557.65625 C-62.87533054 565.41644491 -65.74117566 573.39459532 -68.56640625 581.46875 C-69.05447299 582.8553288 -69.54283831 584.24180253 -70.03149414 585.62817383 C-71.22701284 589.02266616 -72.41831966 592.41861803 -73.60827637 595.81506348 C-74.53155287 598.44803369 -75.45918122 601.07946583 -76.38671875 603.7109375 C-76.98856704 605.42177449 -77.59015427 607.13270335 -78.19140625 608.84375 C-78.57776245 609.9426355 -78.57776245 609.9426355 -78.97192383 611.0637207 C-80.3675816 615.05450805 -81.71591926 619.05749928 -83.03515625 623.07421875 C-99.4606478 672.45980697 -120.78999264 714.77478316 -150.25390625 757.65625 C-151.24122164 759.09872826 -152.22824154 760.54140886 -153.21484375 761.984375 C-159.14853995 770.65157169 -165.15006338 779.27167285 -171.15844727 787.88720703 C-180.31588204 801.02751075 -189.39021371 814.22564584 -198.31835938 827.52294922 C-199.28649143 828.96164614 -200.25792338 830.39812726 -201.23242188 831.83251953 C-202.67454446 833.95606892 -204.10585668 836.08655537 -205.53515625 838.21875 C-206.18200378 839.16427734 -206.18200378 839.16427734 -206.84191895 840.12890625 C-211.78085623 847.55378021 -214.57855899 854.92695597 -212.80859375 863.91845703 C-212.19903597 866.38056248 -211.50091705 868.79485806 -210.75390625 871.21875 C-210.48980957 872.08701416 -210.22571289 872.95527832 -209.95361328 873.84985352 C-205.83097489 886.7695899 -200.09541785 899.111648 -188.19140625 906.28125 C-180.08660659 911.23278911 -180.08660659 911.23278911 -178.25390625 913.65625 C-178.25390625 916.59375 -178.25390625 916.59375 -179.25390625 919.65625 C-184.79793099 925.20027474 -190.93985955 925.10790484 -198.40869141 925.17749023 C-214.99387211 924.77327239 -227.017476 911.70722567 -238.4921875 901.1328125 C-241.24043539 898.66832995 -244.06311493 896.34182317 -246.94140625 894.03125 C-251.0147017 890.74484117 -254.7321481 887.29944809 -258.3671875 883.5390625 C-260.20797585 881.70208531 -262.12522418 880.06198728 -264.12890625 878.40625 C-272.33152925 871.30813861 -280.2641449 862.91960641 -281.58984375 851.8515625 C-282.13663098 841.6188301 -278.62925742 835.10311922 -271.94140625 827.59375 C-269.75516354 825.26007973 -267.54358369 822.95468785 -265.31640625 820.66015625 C-248.11945086 802.28091018 -236.61817292 777.90287932 -225.63174438 755.52288818 C-223.26623308 750.7086648 -220.87566481 745.90692757 -218.484375 741.10546875 C-218.02355026 740.17986145 -217.56272552 739.25425415 -217.0879364 738.30059814 C-212.07988488 728.26556364 -206.85652533 718.37369098 -201.25390625 708.65625 C-200.5897168 707.48932617 -200.5897168 707.48932617 -199.91210938 706.29882812 C-194.52014865 696.88417074 -188.70860306 688.24383958 -181.58032227 680.04345703 C-175.45850705 672.91192629 -173.68601317 665.77449724 -172.25390625 656.65625 C-171.9143711 654.59218232 -171.5732249 652.528379 -171.23046875 650.46484375 C-171.06579102 649.46694824 -170.90111328 648.46905273 -170.73144531 647.44091797 C-170.11490821 643.84571233 -169.38305268 640.28761466 -168.62890625 636.71875 C-167.40344098 630.78456765 -166.56815695 624.86184768 -165.89990234 618.84399414 C-165.57485734 615.95564281 -165.17716609 613.42602952 -164.25390625 610.65625 C-162.36341885 598.76763895 -161.19028925 586.74434423 -159.87890625 574.78125 C-159.71649948 573.30924133 -159.71649948 573.30924133 -159.55081177 571.80749512 C-157.91677785 556.9106995 -156.58518296 542.0066889 -155.43478394 527.0652771 C-153.33578953 499.82046132 -150.2929655 473.03852907 -142.52832031 446.73022461 C-137.1375008 427.92359593 -135.89151101 409.91685295 -135.38256836 390.46191406 C-135.27109319 386.47184357 -135.12252652 382.48314441 -134.97851562 378.49414062 C-134.55959334 366.54944005 -134.16108706 354.61028121 -134.25390625 342.65625 C-134.5684375 343.69523437 -134.88296875 344.73421875 -135.20703125 345.8046875 C-139.07558011 358.46041226 -139.07558011 358.46041226 -141.12890625 363.40625 C-149.10731696 382.69264439 -155.08576427 402.92453048 -161.62054443 422.73657227 C-162.1739467 424.41389789 -162.72870467 426.0907761 -163.28369141 427.76757812 C-167.2449776 439.78340501 -170.5726799 451.93271072 -173.62866211 464.20996094 C-174.15141389 466.25524512 -174.7362916 468.28451825 -175.3359375 470.30859375 C-177.18438432 477.71836453 -177.29103878 485.64383867 -177.85571289 493.2421875 C-179.63594756 516.81784315 -179.63594756 516.81784315 -187.25390625 525.65625 C-194.13916363 531.35289453 -201.78450723 533.17823931 -210.609375 532.9609375 C-216.64528266 532.26551535 -219.91881964 529.35855099 -223.62890625 524.71875 C-229.55135634 516.75352969 -228.02186053 504.0800477 -227.25390625 494.65625 C-225.9172175 486.25649791 -222.52357285 478.87766409 -218.37890625 471.53125 C-207.78515763 452.62433412 -204.75911298 430.61038102 -200.80267334 409.57281494 C-198.82384368 399.05581178 -196.8260612 388.54240358 -194.81640625 378.03125 C-194.57996399 376.79442474 -194.34352173 375.55759949 -194.09991455 374.28329468 C-189.41492635 349.85785723 -184.28703192 325.59323929 -176.91650391 301.81542969 C-175.5294476 297.29548643 -174.20720687 292.75623362 -172.87890625 288.21875 C-172.57944092 287.19958496 -172.27997559 286.18041992 -171.97143555 285.13037109 C-170.15588504 278.90437789 -168.45561677 272.65864198 -166.828125 266.38110352 C-154.442086 218.85848411 -137.40318807 177.79517118 -97.94140625 146.46875 C-89.98113409 140.13179618 -87.77417013 133.30170436 -85.25390625 123.65625 C-84.95097656 122.53992188 -84.64804687 121.42359375 -84.3359375 120.2734375 C-81.05203864 105.99695699 -80.6507706 89.70051016 -82.75170898 75.22680664 C-83.58291011 69.31707576 -83.51756212 63.38312811 -83.54907227 57.42578125 C-83.5605196 55.92698674 -83.58085488 54.42823063 -83.6105957 52.9296875 C-83.95506097 35.50243916 -80.94589915 20.53490257 -68.56640625 7.46875 C-49.23862885 -10.96207964 -23.11607419 -13.78150697 0 0 Z " fill="#FEFEFE" transform="translate(601.25390625,126.34375)"/>
</svg>
